<?xml version="1.0" encoding="UTF-8"?>
<svg xmlns="http://www.w3.org/2000/svg" xmlns:xlink="http://www.w3.org/1999/xlink" width="810pt" height="809.999993pt" viewBox="0 0 810 809.999993" version="1.2">
<defs>
<clipPath id="clip1">
  <path d="M 40.945312 40.945312 L 769.195312 40.945312 L 769.195312 769.195312 L 40.945312 769.195312 Z M 40.945312 40.945312 "/>
</clipPath>
<filter id="alpha" filterUnits="objectBoundingBox" x="0%" y="0%" width="100%" height="100%">
  <feColorMatrix type="matrix" in="SourceGraphic" values="0 0 0 0 1 0 0 0 0 1 0 0 0 0 1 0 0 0 1 0"/>
</filter>
<mask id="mask0">
  <g filter="url(#alpha)">
<rect x="0" y="0" width="810" height="809.999993" style="fill:rgb(0%,0%,0%);fill-opacity:0.0471;stroke:none;"/>
  </g>
</mask>
<clipPath id="clip2">
  <rect x="0" y="0" width="716" height="716"/>
</clipPath>
<g id="surface5" clip-path="url(#clip2)">
<path style=" stroke:none;fill-rule:nonzero;fill:rgb(100%,100%,100%);fill-opacity:1;" d="M 358.070312 1.929688 C 161.378906 1.929688 1.929688 161.378906 1.929688 358.070312 C 1.929688 554.761719 161.378906 714.210938 358.070312 714.210938 C 554.761719 714.210938 714.210938 554.761719 714.210938 358.070312 C 714.210938 161.378906 554.761719 1.929688 358.070312 1.929688 Z M 358.070312 373.179688 C 349.726562 373.179688 342.960938 366.414062 342.960938 358.070312 C 342.960938 349.726562 349.726562 342.960938 358.070312 342.960938 C 366.414062 342.960938 373.179688 349.726562 373.179688 358.070312 C 373.179688 366.414062 366.414062 373.179688 358.070312 373.179688 Z M 358.070312 373.179688 "/>
</g>
</defs>
<g id="surface1">
<g clip-path="url(#clip1)" clip-rule="nonzero">
<path style=" stroke:none;fill-rule:nonzero;fill:rgb(12.548828%,12.548828%,12.548828%);fill-opacity:1;" d="M 405.070312 40.945312 C 203.96875 40.945312 40.945312 203.96875 40.945312 405.070312 C 40.945312 606.171875 203.96875 769.195312 405.070312 769.195312 C 606.167969 769.195312 769.195312 606.171875 769.195312 405.070312 C 769.195312 203.96875 606.167969 40.945312 405.070312 40.945312 Z M 405.070312 420.179688 C 396.726562 420.179688 389.960938 413.414062 389.960938 405.070312 C 389.960938 396.726562 396.726562 389.960938 405.070312 389.960938 C 413.414062 389.960938 420.179688 396.726562 420.179688 405.070312 C 420.179688 413.414062 413.414062 420.179688 405.070312 420.179688 Z M 405.070312 420.179688 "/>
</g>
<use xlink:href="#surface5" transform="matrix(1,0,0,1,47,47)" mask="url(#mask0)"/>
<path style=" stroke:none;fill-rule:nonzero;fill:rgb(12.548828%,12.548828%,12.548828%);fill-opacity:1;" d="M 405.070312 221.128906 C 303.480469 221.128906 221.128906 303.480469 221.128906 405.070312 C 221.128906 506.65625 303.480469 589.011719 405.070312 589.011719 C 506.65625 589.011719 589.007812 506.65625 589.007812 405.070312 C 589.007812 303.484375 506.65625 221.128906 405.070312 221.128906 Z M 405.070312 420.179688 C 396.726562 420.179688 389.960938 413.414062 389.960938 405.070312 C 389.960938 396.726562 396.726562 389.960938 405.070312 389.960938 C 413.414062 389.960938 420.179688 396.726562 420.179688 405.070312 C 420.179688 413.414062 413.414062 420.179688 405.070312 420.179688 Z M 405.070312 420.179688 "/>
<path style=" stroke:none;fill-rule:nonzero;fill:rgb(100%,39.99939%,76.858521%);fill-opacity:1;" d="M 405.070312 293.226562 C 343.300781 293.226562 293.226562 343.300781 293.226562 405.070312 C 293.226562 466.839844 343.300781 516.914062 405.070312 516.914062 C 466.839844 516.914062 516.914062 466.839844 516.914062 405.070312 C 516.914062 343.300781 466.839844 293.226562 405.070312 293.226562 Z M 405.070312 420.179688 C 396.726562 420.179688 389.960938 413.414062 389.960938 405.070312 C 389.960938 396.726562 396.726562 389.960938 405.070312 389.960938 C 413.414062 389.960938 420.179688 396.726562 420.179688 405.070312 C 420.179688 413.414062 413.414062 420.179688 405.070312 420.179688 Z M 405.070312 420.179688 "/>
<path style=" stroke:none;fill-rule:nonzero;fill:rgb(100%,100%,100%);fill-opacity:1;" d="M 405.070312 502.316406 C 351.449219 502.316406 307.824219 458.691406 307.824219 405.070312 C 307.824219 351.449219 351.449219 307.828125 405.070312 307.828125 C 458.691406 307.828125 502.3125 351.449219 502.3125 405.070312 C 502.3125 458.691406 458.691406 502.316406 405.070312 502.316406 Z M 405.070312 310.566406 C 352.960938 310.566406 310.5625 352.960938 310.5625 405.070312 C 310.5625 457.179688 352.960938 499.578125 405.070312 499.578125 C 457.179688 499.578125 499.574219 457.179688 499.574219 405.070312 C 499.574219 352.960938 457.179688 310.566406 405.070312 310.566406 Z M 405.070312 310.566406 "/>
<path style=" stroke:none;fill-rule:nonzero;fill:rgb(12.548828%,12.548828%,12.548828%);fill-opacity:1;" d="M 405.070312 705.875 C 324.722656 705.875 249.183594 674.585938 192.367188 617.773438 C 135.554688 560.957031 104.261719 485.417969 104.261719 405.070312 C 104.261719 324.722656 135.550781 249.183594 192.367188 192.367188 C 249.183594 135.554688 324.722656 104.265625 405.070312 104.265625 C 485.417969 104.265625 560.957031 135.554688 617.769531 192.367188 C 674.585938 249.183594 705.871094 324.722656 705.871094 405.070312 C 705.871094 485.417969 674.585938 560.957031 617.769531 617.769531 C 560.957031 674.585938 485.417969 705.875 405.070312 705.875 Z M 405.070312 110.914062 C 326.496094 110.914062 252.628906 141.511719 197.070312 197.070312 C 141.507812 252.628906 110.910156 326.496094 110.910156 405.070312 C 110.910156 483.640625 141.507812 557.511719 197.070312 613.070312 C 252.628906 668.632812 326.5 699.226562 405.070312 699.226562 C 483.640625 699.226562 557.511719 668.628906 613.070312 613.070312 C 668.628906 557.511719 699.226562 483.640625 699.226562 405.070312 C 699.226562 326.496094 668.625 252.628906 613.070312 197.070312 C 557.511719 141.511719 483.640625 110.914062 405.070312 110.914062 Z M 405.070312 110.914062 "/>
<path style=" stroke:none;fill-rule:nonzero;fill:rgb(12.548828%,12.548828%,12.548828%);fill-opacity:1;" d="M 405.070312 725.589844 C 319.457031 725.589844 238.96875 692.25 178.429688 631.710938 C 117.890625 571.171875 84.550781 490.683594 84.550781 405.070312 C 84.550781 319.457031 117.890625 238.96875 178.429688 178.429688 C 238.96875 117.890625 319.457031 84.550781 405.070312 84.550781 C 490.683594 84.550781 571.175781 117.890625 631.710938 178.429688 C 692.25 238.96875 725.585938 319.457031 725.585938 405.070312 C 725.585938 490.683594 692.25 571.175781 631.710938 631.710938 C 571.171875 692.246094 490.683594 725.589844 405.070312 725.589844 Z M 405.070312 91.199219 C 321.230469 91.199219 242.410156 123.847656 183.128906 183.128906 C 123.847656 242.410156 91.199219 321.230469 91.199219 405.070312 C 91.199219 488.90625 123.847656 567.726562 183.128906 627.007812 C 242.410156 686.292969 321.230469 718.941406 405.070312 718.941406 C 488.90625 718.941406 567.730469 686.292969 627.011719 627.011719 C 686.292969 567.726562 718.941406 488.90625 718.941406 405.070312 C 718.941406 321.230469 686.289062 242.410156 627.011719 183.128906 C 567.730469 123.847656 488.90625 91.199219 405.070312 91.199219 Z M 405.070312 91.199219 "/>
<path style=" stroke:none;fill-rule:nonzero;fill:rgb(12.548828%,12.548828%,12.548828%);fill-opacity:1;" d="M 405.070312 638.289062 C 276.472656 638.289062 171.851562 533.667969 171.851562 405.070312 C 171.851562 276.472656 276.472656 171.851562 405.070312 171.851562 C 533.667969 171.851562 638.289062 276.472656 638.289062 405.070312 C 638.289062 533.667969 533.667969 638.289062 405.070312 638.289062 Z M 405.070312 180.0625 C 281 180.0625 180.0625 281 180.0625 405.070312 C 180.0625 529.140625 281 630.078125 405.070312 630.078125 C 529.136719 630.078125 630.074219 529.140625 630.074219 405.070312 C 630.074219 281.003906 529.136719 180.0625 405.070312 180.0625 Z M 405.070312 180.0625 "/>
<path style=" stroke:none;fill-rule:nonzero;fill:rgb(12.548828%,12.548828%,12.548828%);fill-opacity:1;" d="M 405.070312 610.457031 C 291.820312 610.457031 199.683594 518.320312 199.683594 405.070312 C 199.683594 291.820312 291.820312 199.6875 405.070312 199.6875 C 518.320312 199.6875 610.453125 291.820312 610.453125 405.070312 C 610.453125 518.320312 518.320312 610.457031 405.070312 610.457031 Z M 405.070312 213.375 C 299.367188 213.375 213.375 299.367188 213.375 405.070312 C 213.375 510.773438 299.367188 596.769531 405.070312 596.769531 C 510.773438 596.769531 596.765625 510.773438 596.765625 405.070312 C 596.765625 299.367188 510.773438 213.375 405.070312 213.375 Z M 405.070312 213.375 "/>
<path style=" stroke:none;fill-rule:nonzero;fill:rgb(12.548828%,12.548828%,12.548828%);fill-opacity:1;" d="M 405.070312 665.652344 C 261.382812 665.652344 144.488281 548.753906 144.488281 405.070312 C 144.488281 261.386719 261.382812 144.488281 405.070312 144.488281 C 548.753906 144.488281 665.648438 261.386719 665.648438 405.070312 C 665.648438 548.753906 548.753906 665.652344 405.070312 665.652344 Z M 405.070312 150.699219 C 264.808594 150.699219 150.695312 264.808594 150.695312 405.070312 C 150.695312 545.332031 264.808594 659.445312 405.070312 659.445312 C 545.332031 659.445312 659.441406 545.332031 659.441406 405.070312 C 659.441406 264.808594 545.332031 150.699219 405.070312 150.699219 Z M 405.070312 150.699219 "/>
</g>
</svg>
